<svg xmlns="http://www.w3.org/2000/svg" xmlns:xlink="http://www.w3.org/1999/xlink" version="1.1" x="0px" y="0px" viewBox="0 0 100 125" enable-background="new 0 0 100 100" xml:space="preserve"><g><path d="M41.993,68.271c-0.019,0.028-0.039,0.061-0.058,0.09c0,0-2.459-11.051-3.031-16.568c-0.075,0.111-0.151,0.223-0.236,0.334   c-0.458,0.585-1.059,1.152-1.855,1.656l-11.994,5.218c-3.751,1.442-5.34,3.606-5.34,3.606c-5.556,8.227-6.206,16.445-6.206,16.445   c0.072,4.184,1.876,4.616,1.876,4.616c8.904,3.974,22.291,5.667,29.586,6.329c0.177-9.025,2.704-21.755,3.021-23.32   c-0.794-1.254-1.321-2.91-1.594-3.933C45.013,63.952,43.619,65.708,41.993,68.271z"/><path d="M80,64c0.493,0,0.979,0.029,1.462,0.074c-0.297-0.488-0.606-0.979-0.938-1.467c0,0-1.588-2.164-5.342-3.605   c0,0-7.406-2.25-11.347-4.785c-0.312-0.199-0.604-0.402-0.864-0.604c-0.117-0.133-0.479-0.385-0.594-0.521   c-0.395-0.277-0.59-0.541-0.965-1.031c-0.582,5.609-2.834,16.352-2.834,16.352c-1.557-2.563-2.945-4.334-4.131-5.563   c-0.538,1.896-1.125,3.154-1.684,3.989c1.844,6.541,2.696,21.593,2.778,23.136c2.944-0.271,6.826-0.711,10.979-1.388   C64.934,86.104,64,83.161,64,80C64,71.178,71.178,64,80,64z"/><path d="M60.223,49.181c-0.052-0.346-0.084-0.716-0.089-1.111c0.218-0.257,0.429-0.52,0.634-0.788l0.129-0.172   c1.404-1.865,2.554-3.968,3.324-6.107c1.389-1.387,2.102-4.765,2.102-4.765c0.924-2.584,0.648-3.906,0.228-4.57   c0.132-0.392,2.347-7.242-0.78-12.525c0,0-1.11-4.996-6.994-7.216c-5.439-3.328-13.543-1.332-13.543-1.332   c-9.88,1.665-11.996,13.288-11.996,13.288c-0.589,5.305,0.833,8.625,0.892,8.761c-0.506,1.257,0.412,4.541,0.412,4.541   c0.315,2.005,1.298,2.618,1.583,2.756c0.768,2.782,2.161,5.483,3.908,7.75c0.021,0.391,0.016,0.957-0.104,1.614   c0.883,2.912,3.193,8.222,8.633,10.339c0.459,0.18,0.941,0.34,1.448,0.469c0.58-0.163,1.131-0.359,1.653-0.59   C56.797,57.294,59.209,52.195,60.223,49.181z"/><path d="M80,66c-7.721,0-14,6.279-14,14s6.279,14,14,14c7.719,0,14-6.279,14-14S87.719,66,80,66z M86.557,81.688h-4.554v4.87   h-3.989v-4.87h-4.571l0.001-3.989h4.57v-4.256h3.989v4.256h4.555L86.557,81.688z"/></g></svg>