<svg xmlns="http://www.w3.org/2000/svg" xmlns:xlink="http://www.w3.org/1999/xlink" version="1.1" x="0px" y="0px" viewBox="0 0 100 125" enable-background="new 0 0 100 100" xml:space="preserve"><g><path d="M65.292,14.346c-0.027,0-0.056,0.027-0.084,0.027l0,0H42.36c-1.934,0-3.532,1.572-3.532,3.509v17.314H26.689   c-1.906,0-3.476,1.572-3.476,3.508v43.442c0,1.937,1.569,3.508,3.476,3.508h30.978c1.906,0,3.477-1.571,3.477-3.508V64.831H73.31   c1.906,0,3.477-1.571,3.477-3.508V25.627v-0.028c0-0.028,0-0.028,0-0.028c0-0.027,0-0.056,0-0.056s0-0.028-0.028-0.028   c0-0.027,0-0.027,0-0.056c0,0,0-0.028,0-0.057c0,0,0,0-0.027,0c0-0.027,0-0.056,0-0.056V25.29c0-0.028,0-0.028,0-0.056   c-0.028,0-0.028,0-0.028-0.028c-0.028,0-0.028,0-0.028-0.028l-0.027-0.028c0-0.027-0.028-0.027-0.028-0.027   c0-0.028-0.028-0.028-0.028-0.057c0,0,0-0.028-0.028-0.028c0,0,0,0-0.027-0.027L65.938,14.598c-0.085-0.084-0.169-0.14-0.253-0.168   c0,0,0,0-0.028,0c0-0.028-0.027-0.028-0.027-0.028c-0.028,0-0.028,0-0.028,0c-0.028,0-0.056-0.028-0.084-0.028   C65.433,14.346,65.376,14.346,65.292,14.346L65.292,14.346z M42.36,15.945h22.203v6.932c0,1.908,1.569,3.508,3.504,3.508h7.148   v34.938c0,1.095-0.841,1.937-1.906,1.937H61.144V46.45c0-0.028,0-0.028,0-0.057c0,0,0,0,0-0.027v-0.028   c0-0.028-0.028-0.028-0.028-0.028c0-0.028,0-0.028,0-0.056c0-0.028,0-0.028,0-0.057c0,0-0.028,0-0.028-0.028v-0.027   c0-0.028,0-0.028-0.027-0.028c0-0.028,0-0.057,0-0.057s0-0.027-0.028-0.027v-0.028c-0.028,0-0.028-0.028-0.028-0.057   c-0.028,0-0.028,0-0.028-0.027c-0.027,0-0.027-0.028-0.027-0.028c0-0.028-0.028-0.028-0.028-0.028l-0.028-0.027L50.294,35.421   c-0.084-0.084-0.168-0.141-0.28-0.196c-0.027,0-0.027,0-0.056,0c0,0,0,0-0.028,0c0-0.028-0.027-0.028-0.056-0.028   c-0.112-0.027-0.196-0.027-0.309,0h-9.139V17.882C40.427,16.815,41.296,15.945,42.36,15.945L42.36,15.945z M66.161,17.012   l4.401,4.35l3.477,3.424h-5.972c-1.065,0-1.906-0.842-1.906-1.908V17.012L66.161,17.012z M35.269,18.246   c-0.028,0.028-0.028,0.028-0.057,0.028l-3.729,1.01c-0.393,0.085-0.673,0.562-0.561,0.954c0.112,0.394,0.561,0.674,0.981,0.562   l1.962-0.505c-0.112,0.196-0.252,0.421-0.448,0.701c-0.477,0.842-1.094,1.937-1.822,3.172c-1.43,2.497-3.168,5.5-4.401,7.689   c-0.196,0.364-0.056,0.869,0.309,1.066c0.364,0.224,0.869,0.084,1.065-0.281c1.261-2.188,2.943-5.191,4.373-7.689   c0.729-1.234,1.401-2.329,1.878-3.143c0.141-0.281,0.253-0.449,0.364-0.617l0.477,1.796c0.085,0.393,0.562,0.673,0.981,0.561   c0.393-0.112,0.645-0.589,0.533-0.981l-1.01-3.705c-0.084-0.364-0.448-0.617-0.813-0.617   C35.324,18.246,35.296,18.246,35.269,18.246L35.269,18.246z M26.689,36.769h22.259v6.903c0,1.937,1.57,3.508,3.477,3.508h7.12   v34.967c0,1.066-0.813,1.937-1.878,1.937H26.689c-1.065,0-1.906-0.87-1.906-1.937V38.704C24.783,37.61,25.624,36.769,26.689,36.769   L26.689,36.769z M50.547,37.862l4.261,4.21l3.616,3.536h-5.999c-1.065,0-1.878-0.842-1.878-1.937V37.862L50.547,37.862z    M72.833,67.245c-0.252,0.027-0.477,0.168-0.616,0.393c-1.233,2.161-2.943,5.191-4.373,7.661c-0.729,1.263-1.374,2.357-1.851,3.171   c-0.168,0.281-0.252,0.421-0.364,0.618l-0.477-1.797c-0.112-0.393-0.589-0.673-0.981-0.561s-0.673,0.589-0.561,0.981l1.009,3.705   c0.084,0.364,0.449,0.617,0.813,0.589c0.056,0,0.112,0,0.168-0.028l3.7-0.981c0.393-0.085,0.673-0.562,0.561-0.954   c-0.084-0.421-0.561-0.674-0.953-0.562l-1.99,0.505c0.141-0.225,0.28-0.421,0.449-0.729c0.477-0.813,1.121-1.908,1.822-3.144   c1.457-2.497,3.167-5.5,4.4-7.689C73.898,67.918,73.422,67.188,72.833,67.245L72.833,67.245z"/></g></svg>